# xmcd
#
# Track frame offsets:
#	150
#	17268
#	34204
#	50949
#	68228
#	84481
#	101384
#	119730
#	135972
#	150269
#	170190
#	191242
#	209359
#	226585
#	242258
#	260454
#	277158
#	293938
#
# Disc length: 4239 seconds
#
# Revision: 1
# Processed by: cddbd v1.5.2PL0 Copyright (c) Steve Scherf et al.
# Submitted via: audiograbber 1.83.01
#
DISCID=fd108d12
DTITLE=Tone - Phantom
DYEAR=2009
DGENRE=Hip-Hop
TTITLE0=Aus Dem Dunkeln Ins Licht
TTITLE1=Bös
TTITLE2=Leg Das Mic Weg
TTITLE3=Du Lässt Mich Nicht Los feat. Julian Williams
TTITLE4=Weit Gekommen
TTITLE5=Skalpell
TTITLE6=Durch Den Regen
TTITLE7=Unser Weg feat. Jeyz
TTITLE8=Wahnsinns Flows
TTITLE9=Mörder Rap
TTITLE10=Mein Traum feat. Xavier Naidoo
TTITLE11=Dein Tag Wird Kommen
TTITLE12=Lieb Von Dir feat. Harris
TTITLE13=Du Hast Recht feat. Kool Savas
TTITLE14=Gorillas feat. Magic and Adem
TTITLE15=Sie Leiden feat. Cassandra Steen
TTITLE16=Special
TTITLE17=Zu Weit Vorraus
EXTD=
EXTT0=
EXTT1=
EXTT2=
EXTT3=
EXTT4=
EXTT5=
EXTT6=
EXTT7=
EXTT8=
EXTT9=
EXTT10=
EXTT11=
EXTT12=
EXTT13=
EXTT14=
EXTT15=
EXTT16=
EXTT17=
PLAYORDER=
